<?xml version="1.0" standalone="no"?>
<!DOCTYPE svg PUBLIC "-//W3C//DTD SVG 20010904//EN"
 "http://www.w3.org/TR/2001/REC-SVG-20010904/DTD/svg10.dtd">
<svg version="1.0" xmlns="http://www.w3.org/2000/svg"
 width="210.000000pt" height="210.000000pt" viewBox="0 0 210.000000 210.000000"
 preserveAspectRatio="xMidYMid meet">
<metadata>
Created by potrace 1.11, written by Peter Selinger 2001-2013
</metadata>
<g transform="translate(0.000000,210.000000) scale(0.100000,-0.100000)"
fill="#000000" stroke="none">
<path d="M1097 2032 c-35 -36 -51 -112 -74 -334 -9 -92 -19 -166 -21 -163 -5
5 -15 53 -47 242 -30 179 -42 220 -73 244 -53 41 -144 15 -161 -47 -17 -60 -7
-103 143 -639 101 -359 99 -313 35 -625 -52 -256 -99 -531 -99 -580 0 -34 4
-42 30 -55 59 -30 134 -14 143 32 3 15 17 122 32 238 15 116 29 217 32 225 3
8 25 -82 49 -200 24 -118 49 -235 56 -260 l14 -45 51 -3 c42 -2 55 1 81 23 27
22 29 29 22 55 -8 27 -6 30 15 30 20 0 25 -6 31 -45 9 -62 32 -60 36 2 3 41 6
48 28 53 37 9 38 37 1 45 -21 4 -33 14 -35 28 -3 12 -17 197 -32 411 -21 299
-24 393 -16 407 7 10 12 44 12 76 l0 57 34 -33 c40 -38 70 -38 74 0 3 22 -5
32 -46 58 -27 17 -54 31 -60 31 -7 0 -12 5 -12 11 0 6 -17 9 -42 7 l-43 -3 0
-93 c0 -76 3 -96 17 -106 14 -10 20 -70 42 -396 14 -212 28 -402 31 -422 5
-34 3 -37 -22 -40 l-28 -3 -67 260 c-99 385 -129 537 -117 605 38 217 123 671
141 748 36 161 10 232 -86 232 -33 0 -48 -6 -69 -28z"/>
<path d="M645 1257 c-50 -36 -60 -47 -60 -72 0 -43 28 -44 70 -2 l35 35 0 -64
c0 -50 3 -64 15 -64 12 0 13 -14 9 -77 -5 -78 -34 -724 -34 -754 0 -11 -12
-19 -35 -23 -54 -10 -41 -46 16 -46 16 0 19 -7 19 -45 0 -33 4 -45 15 -45 9 0
15 9 15 23 0 45 12 66 38 69 37 4 39 27 3 41 -37 14 -36 -16 -16 437 8 179 15
346 15 373 0 34 4 47 14 47 18 0 29 62 24 145 l-3 60 -40 2 c-33 2 -51 -6
-100 -40z"/>
</g>
</svg>
